<svg width="97" height="109" viewBox="0 0 97 109" fill="none" xmlns="http://www.w3.org/2000/svg">
<path d="M0 52.9112C2.98768e-05 24.4113 25 -7.08879 49.5001 1.41129C62.9992 6.91125 64.5 13.9113 64.5 28.4112C64.5 45.4113 55.0001 44.4113 56.0001 54.4113C57.0001 64.4113 63.9992 64.4112 66.9992 79.4112C69.9992 94.4112 46.9992 113.411 29 107.411C8.00015 100.411 -1.57683e-05 67.9528 0 52.9112Z" fill="#4A3028"/>
<path d="M96.9992 57.9112C96.9992 45.4113 93.1362 36.526 90.4992 31.9112C88.4992 28.4112 81.1825 24.4112 78.4992 24.4112C74.4992 24.4112 71.4992 28.9112 71.4992 31.9112C71.4992 34.9112 72.9992 36.9112 72.9992 40.9112C72.9992 44.9112 66.9992 49.9112 66.9992 55.9112C66.9992 63.4112 74.0001 70.9112 75.9992 76.4112C77.2069 79.734 71.9992 87.9112 78.4992 90.9112C81.8042 92.4366 96.9992 78.9112 96.9992 57.9112Z" fill="#4A3028"/>
</svg>
