<svg id="Layer_1" data-name="Layer 1" xmlns="http://www.w3.org/2000/svg" viewBox="0 0 1937.6 390.66"><defs><style>.cls-1,.cls-3{fill:#844a33;}.cls-2{fill:#ce8d50;}.cls-3{font-size:271.05px;stroke:#844a33;stroke-miterlimit:10;stroke-width:2px;font-family:AnnieUseYourTelescope-Regular, Annie Use Your Telescope;}</style></defs><path class="cls-1" d="M103.6.46C73-3.2,49.62,16,43.84,20.89c-49,41.52-62,145-12.57,181.22,23,16.8,56.77,16.89,82,5.83,37.77-16.56,49.1-54.86,54.15-71.94,2.59-8.74,19.35-65.43-14.34-106.16C148.49,24.27,131.56,3.8,103.6.46Z"/><path class="cls-2" d="M142.64,24.6c-.18-2.28-.42-4.44-.7-6.51a32.77,32.77,0,0,1-5.06-3.95c1.07,10.29.53,22.22-4.23,34.19C123,72.7,104.27,76.06,101.52,96.43c-2.69,20,14.31,25,16.17,49.27,2.49,32.61-28.08,58.39-33.33,63a98.37,98.37,0,0,1-8.89,7,52.6,52.6,0,0,1,6.58-.41l.34,0a105.39,105.39,0,0,0,33.22-30.68c2.93-4.54,14.14-22.67,13.6-41.85-.14-4.82-.31-8.26-1.7-12.78-3.36-10.93-10.42-14.85-9-28.22,1.84-16.92,15.17-23,21.7-42.11C144.46,47.36,143.52,35.62,142.64,24.6Z"/><path class="cls-1" d="M243.91,173.1c-30.3,5.51-47,30.74-51.1,37.12-34.65,54.12-16.6,156.84,41.34,176.88,26.88,9.3,59.23-.56,80.1-18.57,31.22-26.94,30.77-66.88,30.57-84.69-.1-9.11-.77-68.23-44.95-97.23C293.82,182.64,271.61,168.06,243.91,173.1Z"/><path class="cls-2" d="M288.33,184.68c-.85-2.13-1.72-4.12-2.59-6a32.94,32.94,0,0,1-6-2.28,71.86,71.86,0,0,1,6,33.92c-2.09,26.14-19,34.86-15.59,55.13,3.32,19.92,21,19.68,29.95,42.33,12,30.43-9.64,64.07-13.29,70a99.69,99.69,0,0,1-6.44,9.29,50.22,50.22,0,0,1,6.16-2.33c.11,0,.22-.05.33-.08a105.42,105.42,0,0,0,22.72-39.11c1.46-5.2,6.83-25.83.67-44-1.55-4.57-2.72-7.81-5.38-11.72-6.43-9.46-14.33-11.12-16.87-24.33-3.22-16.71,7.72-26.47,8.34-46.63C296.76,205.9,292.41,195,288.33,184.68Z"/><text class="cls-3" transform="translate(430.24 287.6)">Made With Beans</text></svg>